<?xml version="1.0" encoding="UTF-8"?>
<svg xmlns="http://www.w3.org/2000/svg" xmlns:xlink="http://www.w3.org/1999/xlink" width="10px" height="10px" viewBox="0 0 10 10" version="1.1">
<g id="surface1">
<path style=" stroke:none;fill-rule:nonzero;fill:rgb(0%,48.235294%,23.137255%);fill-opacity:1;" d="M 9.191406 5.007812 C 9.191406 7.316406 7.316406 9.191406 5.007812 9.191406 C 2.695312 9.191406 0.824219 7.316406 0.824219 5.007812 C 0.824219 2.695312 2.699219 0.824219 5.007812 0.824219 C 7.316406 0.824219 9.191406 2.699219 9.191406 5.007812 "/>
<path style=" stroke:none;fill-rule:nonzero;fill:rgb(100%,100%,100%);fill-opacity:1;" d="M 5.007812 1.203125 C 7.109375 1.203125 8.8125 2.90625 8.8125 5.007812 C 8.8125 7.109375 7.109375 8.8125 5.007812 8.8125 C 2.90625 8.8125 1.203125 7.109375 1.203125 5.007812 C 1.203125 2.90625 2.90625 1.203125 5.007812 1.203125 M 5.007812 1.023438 C 3.941406 1.023438 2.941406 1.4375 2.191406 2.191406 C 1.4375 2.941406 1.023438 3.945312 1.023438 5.007812 C 1.023438 6.070312 1.4375 7.074219 2.191406 7.824219 C 2.941406 8.578125 3.941406 8.992188 5.007812 8.992188 C 6.070312 8.992188 7.070312 8.578125 7.824219 7.824219 C 8.578125 7.074219 8.992188 6.070312 8.992188 5.007812 C 8.992188 3.945312 8.578125 2.941406 7.824219 2.191406 C 7.070312 1.4375 6.070312 1.023438 5.007812 1.023438 Z M 5.007812 1.023438 "/>
<path style=" stroke:none;fill-rule:nonzero;fill:rgb(100%,100%,100%);fill-opacity:1;" d="M 7.007812 4.214844 L 6.863281 4.617188 L 7.085938 4.617188 L 7.140625 4.460938 L 7.359375 4.460938 L 7.359375 5.570312 L 7.234375 5.570312 L 7.144531 5.820312 L 7.761719 5.820312 L 7.851562 5.570312 L 7.679688 5.570312 L 7.679688 4.464844 L 7.9375 4.464844 L 7.9375 4.617188 L 8.089844 4.617188 L 8.238281 4.214844 L 7.007812 4.214844 "/>
<path style=" stroke:none;fill-rule:nonzero;fill:rgb(100%,100%,100%);fill-opacity:1;" d="M 6.71875 4.460938 L 6.722656 5.820312 L 6.53125 5.820312 C 6.53125 5.820312 5.648438 4.890625 5.589844 4.828125 C 5.589844 4.960938 5.589844 5.570312 5.589844 5.570312 L 5.765625 5.570312 L 5.675781 5.820312 L 5.105469 5.820312 L 5.195312 5.570312 L 5.292969 5.570312 L 5.292969 4.464844 L 5.085938 4.464844 L 5.175781 4.214844 L 5.523438 4.214844 C 5.523438 4.214844 6.199219 4.917969 6.433594 5.164062 C 6.433594 5.089844 6.433594 4.464844 6.433594 4.464844 L 6.261719 4.464844 L 6.351562 4.214844 L 6.933594 4.214844 L 6.84375 4.464844 L 6.71875 4.460938 "/>
<path style=" stroke:none;fill-rule:nonzero;fill:rgb(100%,100%,100%);fill-opacity:1;" d="M 4.171875 6.394531 C 4.148438 6.386719 4.109375 6.402344 4.109375 6.402344 C 4.101562 6.34375 4.039062 6.269531 4.039062 6.269531 C 4.039062 6.269531 4.164062 6.386719 4.171875 6.394531 C 4.171875 6.390625 4.214844 6.304688 4.132812 6.230469 C 4.015625 6.121094 3.785156 5.914062 3.785156 5.914062 C 3.804688 5.964844 3.894531 6.128906 3.847656 6.433594 L 3.964844 6.457031 L 3.976562 6.480469 C 3.976562 6.480469 4.113281 6.496094 4.132812 6.515625 C 4.132812 6.515625 4.179688 6.550781 4.128906 6.59375 C 4.128906 6.59375 4.207031 6.578125 4.25 6.539062 C 4.25 6.539062 4.285156 6.503906 4.242188 6.457031 L 4.171875 6.394531 "/>
<path style=" stroke:none;fill-rule:nonzero;fill:rgb(100%,100%,100%);fill-opacity:1;" d="M 3.539062 5.675781 L 1.859375 4.109375 C 1.78125 4.03125 1.8125 3.929688 1.8125 3.929688 L 1.675781 4.234375 C 1.636719 4.328125 1.695312 4.386719 1.734375 4.417969 C 1.773438 4.453125 3.074219 5.503906 3.074219 5.503906 L 3.074219 5.546875 L 1.78125 4.554688 C 1.71875 4.507812 1.726562 4.429688 1.726562 4.429688 L 1.632812 4.621094 C 1.585938 4.730469 1.699219 4.796875 1.746094 4.832031 C 1.792969 4.863281 3.082031 5.761719 3.082031 5.761719 L 3.09375 5.816406 C 3.09375 5.816406 1.84375 4.984375 1.796875 4.953125 C 1.742188 4.921875 1.746094 4.84375 1.746094 4.84375 L 1.652344 5.039062 C 1.617188 5.117188 1.726562 5.171875 1.773438 5.203125 C 1.800781 5.21875 2.5 5.636719 3.078125 5.976562 L 2.328125 5.976562 C 2.21875 5.976562 2.183594 5.945312 2.183594 5.945312 L 2.28125 6.039062 C 2.300781 6.054688 2.34375 6.113281 2.410156 6.113281 C 2.457031 6.113281 2.6875 6.113281 2.6875 6.113281 L 2.738281 6.136719 L 2.5 6.15625 C 2.453125 6.15625 2.4375 6.160156 2.375 6.125 C 2.375 6.125 2.480469 6.230469 2.480469 6.230469 C 2.511719 6.253906 2.535156 6.28125 2.585938 6.277344 C 2.636719 6.273438 2.941406 6.222656 2.941406 6.222656 L 2.988281 6.242188 L 2.671875 6.3125 C 2.597656 6.328125 2.546875 6.292969 2.546875 6.292969 C 2.546875 6.292969 2.605469 6.351562 2.644531 6.390625 C 2.6875 6.429688 2.722656 6.453125 2.855469 6.417969 C 2.90625 6.402344 3.164062 6.320312 3.164062 6.320312 L 3.332031 6.394531 C 3.496094 6.625 3.703125 6.746094 3.703125 6.746094 C 3.664062 6.792969 3.699219 6.847656 3.699219 6.847656 C 3.734375 6.777344 3.808594 6.738281 3.867188 6.746094 C 3.917969 6.753906 3.90625 6.816406 3.90625 6.8125 C 3.9375 6.773438 3.964844 6.726562 3.933594 6.6875 C 3.894531 6.636719 3.796875 6.679688 3.796875 6.679688 L 3.699219 6.503906 L 3.828125 6.429688 C 3.902344 5.980469 3.539062 5.675781 3.539062 5.675781 "/>
<path style=" stroke:none;fill-rule:nonzero;fill:rgb(100%,100%,100%);fill-opacity:1;" d="M 4.53125 4.214844 L 4.4375 4.464844 L 4.59375 4.460938 L 4.59375 5.1875 C 4.59375 5.320312 4.570312 5.394531 4.503906 5.460938 C 4.453125 5.515625 4.367188 5.546875 4.277344 5.546875 C 4.167969 5.546875 4.070312 5.511719 4.011719 5.449219 C 3.949219 5.386719 3.921875 5.289062 3.921875 5.144531 L 3.921875 4.214844 L 3.46875 4.214844 L 3.375 4.464844 L 3.570312 4.460938 L 3.570312 5.152344 C 3.570312 5.15625 3.570312 5.160156 3.570312 5.164062 C 3.519531 5.097656 3.476562 5.050781 3.453125 5.023438 C 3.429688 5 2.648438 4.125 2.648438 4.125 C 2.582031 4.046875 2.605469 3.988281 2.609375 3.984375 L 2.515625 4.191406 C 2.496094 4.246094 2.535156 4.28125 2.5625 4.3125 C 2.589844 4.347656 3.410156 5.203125 3.410156 5.203125 L 3.40625 5.25 L 2.628906 4.476562 C 2.566406 4.410156 2.582031 4.363281 2.585938 4.355469 L 2.503906 4.542969 C 2.484375 4.601562 2.542969 4.640625 2.585938 4.679688 C 2.628906 4.722656 3.492188 5.53125 3.5625 5.59375 C 3.714844 5.730469 3.785156 5.914062 3.785156 5.914062 C 3.800781 5.84375 3.804688 5.78125 3.800781 5.71875 C 3.953125 5.835938 4.144531 5.851562 4.230469 5.851562 C 4.628906 5.851562 4.890625 5.59375 4.890625 5.191406 L 4.890625 4.460938 L 5.007812 4.460938 L 5.097656 4.210938 L 4.53125 4.210938 Z M 4.53125 4.214844 "/>
<path style=" stroke:none;fill-rule:nonzero;fill:rgb(100%,100%,100%);fill-opacity:1;" d="M 8.203125 4.5625 C 8.210938 4.558594 8.21875 4.554688 8.21875 4.542969 C 8.21875 4.53125 8.210938 4.523438 8.195312 4.523438 L 8.167969 4.523438 L 8.167969 4.59375 L 8.175781 4.59375 L 8.175781 4.5625 L 8.191406 4.5625 L 8.210938 4.59375 L 8.21875 4.59375 Z M 8.191406 4.554688 L 8.175781 4.554688 L 8.175781 4.53125 L 8.195312 4.53125 C 8.199219 4.53125 8.210938 4.53125 8.210938 4.542969 C 8.210938 4.554688 8.199219 4.554688 8.191406 4.554688 Z M 8.191406 4.554688 "/>
<path style=" stroke:none;fill-rule:nonzero;fill:rgb(100%,100%,100%);fill-opacity:1;" d="M 8.191406 4.5 C 8.160156 4.5 8.132812 4.527344 8.132812 4.558594 C 8.132812 4.589844 8.160156 4.617188 8.191406 4.617188 C 8.222656 4.617188 8.25 4.589844 8.25 4.558594 C 8.25 4.527344 8.222656 4.5 8.191406 4.5 Z M 8.191406 4.613281 C 8.160156 4.613281 8.140625 4.589844 8.140625 4.558594 C 8.140625 4.53125 8.160156 4.507812 8.191406 4.507812 C 8.21875 4.507812 8.242188 4.527344 8.242188 4.558594 C 8.242188 4.589844 8.21875 4.613281 8.191406 4.613281 Z M 8.191406 4.613281 "/>
</g>
</svg>
